PathFileType	4	(X/Y/Z)	Walk6.trc
DataRate	CameraRate	NumFrames	NumMarkers	Units	OrigDataRate	OrigDataStartFrame	OrigNumFrames
200.000000	200.000000	4	60	mm	200.000000	419	789
Frame#	Times		RCAR		LToe		LTB1		LMT5		LMT1		LTB4		LTB3		LLFC		RWRR		RWRU		RACR1		RFA1		LUA1		LFA1		STRN		LFHD		LACR1		LElbow		LTH2		LCAR		C7		LPSI		RTB2		LASI		LWRU		RPSI		RLFC		CLAV		LWRR		RToe		RTB3		RMT1		RMT5		LTH1		RMFC		RTB1		LMFC		LTH4		LTH3		RCAL		RTB4		RLMAL		LBHD		RTH2		LTB2		RMMAL		RBHD		RBack		RElbow		RTH4		RASI		RTH3		LCAL		RUA1		LMMAL		RTH1		T10		LElbowM		LLMAL		RElbowM
			X1	Y1	Z1	X2	Y2	Z2	X3	Y3	Z3	X4	Y4	Z4	X5	Y5	Z5	X6	Y6	Z6	X7	Y7	Z7	X8	Y8	Z8	X9	Y9	Z9	X10	Y10	Z10	X11	Y11	Z11	X12	Y12	Z12	X13	Y13	Z13	X14	Y14	Z14	X15	Y15	Z15	X16	Y16	Z16	X17	Y17	Z17	X18	Y18	Z18	X19	Y19	Z19	X20	Y20	Z20	X21	Y21	Z21	X22	Y22	Z22	X23	Y23	Z23	X24	Y24	Z24	X25	Y25	Z25	X26	Y26	Z26	X27	Y27	Z27	X28	Y28	Z28	X29	Y29	Z29	X30	Y30	Z30	X31	Y31	Z31	X32	Y32	Z32	X33	Y33	Z33	X34	Y34	Z34	X35	Y35	Z35	X36	Y36	Z36	X37	Y37	Z37	X38	Y38	Z38	X39	Y39	Z39	X40	Y40	Z40	X41	Y41	Z41	X42	Y42	Z42	X43	Y43	Z43	X44	Y44	Z44	X45	Y45	Z45	X46	Y46	Z46	X47	Y47	Z47	X48	Y48	Z48	X49	Y49	Z49	X50	Y50	Z50	X51	Y51	Z51	X52	Y52	Z52	X53	Y53	Z53	X54	Y54	Z54	X55	Y55	Z55	X56	Y56	Z56	X57	Y57	Z57	X58	Y58	Z58	X59	Y59	Z59	X60	Y60	Z60

419	2.095	-320.59	882.86	308.96	-73.687	134.01	-85.248	-348.11	374.07	-64.763	-152.8	78.75	-150.21	-124.85	114.23	-69.358	-321.68	292.86	-62.801	-292.46	211.94	-62.297	-443.76	493.81	-166.01	-340.43	923.69	248.74	-388.7	899.13	319.99	-554.28	1482.2	186.23	-421.57	1040	296.39	-598	1321.6	-263.38	-583.37	1018.5	-321.5	-440.55	1275.8	1.3975	-414.96	1685.6	-38.019	-569.04	1506.7	-187.34	-653.21	1155.8	-302.85	-452.5	734.44	-203.57	-556.48	851.89	-339.56	-667.95	1541.2	10.312	-732.15	1052.8	-79.927	-782.41	265.42	140.55	-499.15	1009.2	-151.38	-625.18	891.64	-328.33	-741.86	1054.1	28.746	-747.83	504.19	174.09	-503.06	1450.1	-11.796	-543.13	888.94	-283.89	-706.24	31.054	50.407	-816.59	192.25	71.715	-754.54	44.898	42.073	-797.96	25.896	139.93	-536.78	793.7	-224.33	-749.18	501.73	24.34	-746.01	349.97	87.552	-435.56	490.33	-23.028	-507.26	711.76	-215.29	-478.21	630.58	-198.64	-974.41	69.206	69.346	-781.46	270.91	78.719	-907.1	89.907	108.67	-580.81	1675.2	-63.604	-652.13	717.63	200.18	-303.12	297.73	-122.73	-873.34	112.99	16.732	-589.45	1673.6	78.314	-721.24	1418.2	132.79	-540.05	1140.1	310.28	-711.59	724.83	195.51	-537.76	1022.4	162.17	-723.39	642.91	187.77	-330.28	30.452	-81.843	-536.93	1303.5	261.57	-270.71	111.93	-24.573	-698.06	811.78	206.03	-719.09	1185	-18.418	-678.96	1132.1	-214.93	-281.28	79.346	-122.76	-580.12	1105.3	227.01
420	2.1	-314.67	882.42	308.7	-69.337	130.44	-85.128	-342.59	373.13	-64.322	-149.42	76.175	-149.64	-120.6	111.21	-68.926	-316.58	291.81	-62.168	-287.71	210.79	-61.49	-437.93	492.99	-165.78	-334.47	923.19	248.45	-382.82	898.52	319.65	-548.9	1481.4	185.51	-415.84	1039.3	295.94	-591.68	1320.8	-264.08	-577.09	1017.5	-321.88	-434.59	1275.3	0.65417	-409.39	1685	-38.484	-563.07	1506	-188.08	-646.75	1155	-303.57	-446.1	734.13	-204.36	-550.51	850.7	-339.63	-662.37	1540.4	9.4248	-726.09	1052	-80.594	-780.14	265.7	140.67	-493.03	1008.4	-151.96	-619.13	890.74	-328.98	-735.69	1053.4	28.071	-743.46	504.2	173.97	-497.34	1449.4	-12.464	-537.44	887.79	-283.87	-706.25	31.037	50.39	-815.02	192.78	71.918	-754.39	44.892	42.185	-797.83	25.894	139.99	-530.57	793.23	-224.82	-744.76	501.69	24.265	-743.01	349.88	87.552	-429.3	489.98	-22.923	-500.95	711.35	-215.44	-471.77	630.31	-198.46	-973.9	71.092	69.708	-779.19	271.15	78.795	-906.39	91.179	109.01	-575.23	1674.6	-64.212	-646.79	717.28	199.8	-297.94	296.47	-122.1	-872.45	113.98	17.083	-583.97	1672.8	77.709	-715.74	1417.3	131.75	-534.5	1139.3	309.66	-706.24	724.68	195.34	-530.46	1022	161.82	-718.37	642.81	187.59	-327.04	30.413	-80.507	-531.49	1302.6	260.8	-266.31	110.71	-23.514	-692.38	811.58	205.88	-713.05	1184.1	-19.212	-672.77	1131.3	-215.74	-277.62	78.278	-121.65	-574.38	1104.4	226.31
421	2.105	-308.85	881.96	308.47	-65.339	126.37	-84.888	-337.21	372.19	-63.865	-146.45	73.372	-149.06	-116.73	107.79	-68.423	-311.71	290.75	-61.542	-283.26	209.6	-60.71	-431.99	492.33	-165.59	-328.59	922.67	248.18	-377.05	897.9	319.33	-543.5	1480.6	184.76	-410.18	1038.7	295.49	-585.34	1320	-264.81	-570.76	1016.5	-322.28	-428.61	1274.8	-0.1471	-403.79	1684.4	-38.969	-557.1	1505.2	-188.85	-640.23	1154.1	-304.3	-439.58	733.94	-205.06	-544.47	849.52	-339.73	-656.76	1539.7	8.5109	-720.05	1051.3	-81.225	-777.78	266	140.78	-486.88	1007.8	-152.59	-613.01	889.86	-329.67	-729.51	1052.7	27.431	-738.93	504.2	173.82	-491.6	1448.8	-13.174	-531.7	886.67	-283.89	-706.26	31.02	50.371	-813.38	193.35	72.104	-754.24	44.88	42.288	-797.68	25.902	140.03	-524.21	792.91	-225.27	-740.2	501.63	24.179	-739.9	349.8	87.536	-423.08	489.71	-22.856	-494.51	711.1	-215.53	-465.23	630.18	-198.27	-973.34	73.082	70.076	-776.83	271.4	78.862	-905.62	92.525	109.35	-569.63	1674	-64.844	-641.33	716.92	199.39	-292.87	295.22	-121.44	-871.49	115.03	17.435	-578.46	1672.1	77.079	-710.22	1416.3	130.68	-528.99	1138.5	309.01	-700.78	724.5	195.17	-523.3	1021.6	161.43	-713.21	642.68	187.38	-324.31	30.499	-79.349	-526.05	1301.9	260.02	-262.34	109.4	-22.537	-686.62	811.36	205.72	-706.99	1183.3	-19.993	-666.55	1130.6	-216.6	-274.36	77.23	-120.64	-568.67	1103.6	225.59
422	2.11	-303.13	881.49	308.27	-61.659	121.91	-84.539	-331.96	371.3	-63.413	-143.83	70.392	-148.48	-113.22	104.04	-67.862	-307.05	289.7	-60.94	-279.08	208.41	-59.975	-425.96	491.84	-165.45	-322.81	922.14	247.94	-371.38	897.3	319.02	-538.07	1479.8	183.99	-404.57	1038.1	295.05	-578.99	1319.2	-265.56	-564.38	1015.6	-322.7	-422.62	1274.3	-1.0049	-398.17	1683.9	-39.474	-551.14	1504.6	-189.66	-633.66	1153.2	-305.06	-432.98	733.88	-205.69	-538.38	848.38	-339.86	-651.13	1539	7.573	-714.03	1050.6	-81.817	-775.3	266.32	140.87	-480.71	1007.2	-153.28	-606.84	889	-330.39	-723.32	1052	26.829	-734.24	504.18	173.67	-485.84	1448.2	-13.923	-525.9	885.58	-283.93	-706.27	31.003	50.348	-811.66	193.96	72.272	-754.08	44.861	42.379	-797.5	25.923	140.06	-517.71	792.73	-225.69	-735.49	501.57	24.082	-736.67	349.73	87.501	-416.92	489.51	-22.839	-487.98	710.98	-215.58	-458.63	630.17	-198.08	-972.71	75.185	70.444	-774.37	271.68	78.918	-904.79	93.949	109.7	-564	1673.4	-65.501	-635.76	716.56	198.97	-287.89	294.02	-120.77	-870.46	116.13	17.785	-572.93	1671.4	76.425	-704.69	1415.5	129.59	-523.52	1137.8	308.34	-695.21	724.3	194.98	-516.3	1021.2	161.01	-707.93	642.53	187.15	-322.02	30.718	-78.378	-520.62	1301.1	259.22	-258.75	108.06	-21.655	-680.76	811.12	205.54	-700.92	1182.6	-20.753	-660.29	1129.8	-217.48	-271.44	76.232	-119.74	-563	1102.7	224.85
